<!-- Generator: Adobe Illustrator 11.0, SVG Export Plug-In . SVG Version: 6.0.0 Build 78)  -->
<!DOCTYPE svg PUBLIC "-//W3C//DTD SVG 1.0//EN"    "http://www.w3.org/TR/2001/REC-SVG-20010904/DTD/svg10.dtd" [
	<!ENTITY ns_flows "http://ns.adobe.com/Flows/1.0/">
	<!ENTITY ns_svg "http://www.w3.org/2000/svg">
	<!ENTITY ns_xlink "http://www.w3.org/1999/xlink">
]>
<svg  xmlns="&ns_svg;" xmlns:xlink="&ns_xlink;" xmlns:a="http://ns.adobe.com/AdobeSVGViewerExtensions/3.0/"
	 width="251.7" height="234.9" viewBox="0 0 251.7 234.9" style="overflow:visible;enable-background:new 0 0 251.7 234.9"
	 xml:space="preserve">
	<style type="text/css">
	<![CDATA[
		.st0{fill:#118E35;}
		.st1{fill:url(#XMLID_1_);}
		.st2{fill:#EE1686;}
		.st3{fill:#BDE017;}
		.st4{fill:#2291C0;}
		.st5{fill:#F50F3D;}
		.st6{fill:#6B0F82;}
		.st7{fill:#3A3A3A;}
	]]>
	</style>
		<g id="Layer_10">
			<g>
				<g>
					<linearGradient id="XMLID_2_" gradientUnits="userSpaceOnUse" x1="133.8809" y1="53.5947" x2="131.9292" y2="166.0112">
						<stop  offset="0" style="stop-color:#E9F1F2"/>
						<stop  offset="0.5" style="stop-color:#1E88BC"/>
						<stop  offset="1" style="stop-color:#161B88"/>
						<a:midPointStop  offset="0" style="stop-color:#E9F1F2"/>
						<a:midPointStop  offset="0.5" style="stop-color:#E9F1F2"/>
						<a:midPointStop  offset="0.5" style="stop-color:#1E88BC"/>
						<a:midPointStop  offset="0.5" style="stop-color:#1E88BC"/>
						<a:midPointStop  offset="1" style="stop-color:#161B88"/>
					</linearGradient>
					<path style="fill:url(#XMLID_2_);" d="M132.8,47.3c-39.3,0-71.1,30.7-71.1,68.5s31.8,68.5,71.1,68.5s71.1-30.7,71.1-68.5
						S172.1,47.3,132.8,47.3z M132.8,166.3c-28.9,0-52.3-22.6-52.3-50.5c0-27.9,23.4-50.5,52.3-50.5s52.3,22.6,52.3,50.5
						C185.1,143.7,161.7,166.3,132.8,166.3z"/>
				</g>
			</g>
		</g>
		<g id="Layer_9">
			<g>
				<path class="st7" d="M94.7,131.1v-23c0-2.9,0.6-5.2,1.7-7c1.2-1.8,2.7-2.7,4.5-2.7c2.2,0,3.9,1.5,5.1,4.5
					c0.7-1.6,1.5-2.8,2.3-3.5c0.8-0.7,1.8-1,3.1-1c1.9,0,3.4,0.9,4.4,2.7c1,1.8,1.5,4.4,1.5,7.8v22.2H111v-20.8c0-1-0.1-1.7-0.2-2
					c-0.1-0.3-0.3-0.5-0.7-0.5c-0.6,0-1,0.8-1,2.4v21h-6.4v-20.8c0-1-0.1-1.7-0.2-2c-0.1-0.3-0.3-0.5-0.7-0.5
					c-0.6,0-0.9,0.9-0.9,2.6v20.8H94.7z"/>
				<path class="st7" d="M132.6,111.6v7.1h-4.1c-0.6,0-1,0.1-1.2,0.4c-0.2,0.3-0.4,0.7-0.4,1.3c0,0.7,0.1,1.1,0.4,1.3
					c0.2,0.2,0.7,0.3,1.5,0.3h4.3v9.1h-5c-2.4,0-4.1-0.8-5.4-2.5c-1.2-1.7-1.9-4.1-1.9-7.3v-12.5c0-3.1,0.6-5.4,1.8-7.1
					c1.2-1.7,2.8-2.5,5-2.5h5.5v9.2H129c-1.1,0-1.6,0.5-1.6,1.6c0,0.6,0.1,1.1,0.4,1.3c0.3,0.2,0.7,0.4,1.4,0.4H132.6z"/>
				<path class="st7" d="M136.3,131.1v-20.7c0-3.6,0.7-6.6,2.2-8.7c1.5-2.2,3.4-3.3,5.8-3.3c2.4,0,4.3,1.1,5.5,3.2
					c1.3,2.1,1.9,5.2,1.9,9.2v20.4h-6.4v-20.4c0-2-0.5-2.9-1.4-2.9c-0.9,0-1.4,1-1.4,2.9v20.4H136.3z"/>
				<path class="st7" d="M170.6,99.2v20.7c0,3.7-0.7,6.6-2.2,8.8c-1.5,2.2-3.4,3.3-5.8,3.3c-2.4,0-4.3-1.1-5.5-3.2
					c-1.3-2.1-1.9-5.2-1.9-9.2V99.2h6.4v20.4c0,2,0.5,3,1.4,3c0.9,0,1.4-1,1.4-3V99.2H170.6z"/>
			</g>
		</g>
		<g id="Layer_8">
			<path class="st2" d="M74.2,9.7L60.4,22.4l0,13.6c0,0.7,0.5,1.3,1.2,1.3l8.4-0.1c0.7,0,1.2-0.6,1.2-1.3l0-8c0-0.7,0.5-1.3,1.2-1.3
				l4.8,0c0.7,0,1.2,0.6,1.2,1.3l0,7.9c0,0.7,0.5,1.3,1.2,1.3c0,0,0,0,0,0l8.4,0c0.7,0,1.2-0.6,1.2-1.3l0-13.6L75.4,9.7
				C75,9.4,74.6,9.4,74.2,9.7z M96.1,18.2l-6.3-5.7l0-11.5c0-0.6-0.4-1-0.9-1l-4.2,0c-0.5,0-0.9,0.4-0.9,1l0,6l-6.8-6.1
				c-1.3-1.2-3.3-1.2-4.6,0l-19,17.4c-0.4,0.4-0.4,1-0.1,1.4l0,0l1.9,2.6c0.3,0.4,0.9,0.5,1.3,0.1c0,0,0,0,0,0L74.2,6.3
				C74.5,6,75,6,75.4,6.3l17.7,16c0.4,0.4,1,0.3,1.3-0.1l0,0l1.9-2.6C96.6,19.2,96.5,18.6,96.1,18.2C96.1,18.2,96.1,18.2,96.1,18.2z
				"/>
		</g>
		<g id="Layer_7">
			<path class="st4" d="M199.2,23.3c5.6,0,10.1-4.7,10.1-10.5c0-5.8-4.5-10.4-10.1-10.4s-10.1,4.7-10.1,10.5
				C189.1,18.6,193.6,23.3,199.2,23.3z M206.2,25.8l-1.3,0c-1.7,0.8-3.7,1.3-5.7,1.3c-2,0-4-0.5-5.7-1.3l-1.3,0
				c-5.8,0-10.6,4.9-10.6,11l0,3.4c0,2.2,1.7,3.9,3.8,3.9l21.7-0.1c-0.2-0.6-0.3-1.1-0.2-1.7l0.5-5l0.1-0.9l0.6-0.6l6.1-6.3
				C212.2,27.3,209.4,25.8,206.2,25.8z M209.8,37.7l-0.5,5c-0.1,0.8,0.6,1.5,1.4,1.4l4.8-0.6l10.8-11.3l-5.7-5.8L209.8,37.7z
				 M231.4,24.2l-3-3.1c-0.7-0.8-1.9-0.8-2.7,0l-3,3.1l-0.3,0.3l5.7,5.8l3.3-3.4C232.1,26.2,232.1,25,231.4,24.2z"/>
		</g>
		<g id="Layer_6">
			<g>
				<path class="st0" d="M224.6,87.2c1.5,0,2.8,0.9,2.8,2.1l0.5,48.3c0,1.2-1.2,2.1-2.8,2.2l0,0c-1.5,0-2.8-0.9-2.8-2.1l-0.5-48.3
					C221.8,88.2,223,87.2,224.6,87.2L224.6,87.2z"/>
				<path class="st0" d="M232.8,113.6c1.5,0,2.8,0.4,2.8,1l0.3,24.1c0,0.6-1.2,1.1-2.8,1.1l0,0c-1.5,0-2.8-0.4-2.8-1l-0.3-24.1
					C230.1,114.1,231.3,113.6,232.8,113.6L232.8,113.6z"/>
				<path class="st0" d="M240.3,93.9c1.5,0,2.8,0.8,2.8,1.8l0.5,42.2c0,1-1.2,1.9-2.8,1.9l0,0c-1.5,0-2.8-0.8-2.8-1.8l-0.5-42.2
					C237.5,94.8,238.8,93.9,240.3,93.9L240.3,93.9z"/>
				<path class="st0" d="M248.5,103.6c1.5,0,2.8,0.6,2.8,1.4l0.4,32.9c0,0.8-1.2,1.5-2.8,1.5l0,0c-1.5,0-2.8-0.6-2.8-1.4l-0.4-32.9
					C245.7,104.3,247,103.6,248.5,103.6L248.5,103.6z"/>
			</g>
		</g>
		<g id="Layer_5">
			<path class="st3" d="M23.4,115.7h-7.8c-1.1,0-2,1.1-2,2.5v9.8c0,1.4,0.9,2.5,2,2.5h7.8c1.1,0,2-1.1,2-2.5v-9.8
				C25.4,116.8,24.5,115.7,23.4,115.7z M11.7,93.5c0-1.4-0.9-2.5-2-2.5H2c-1.1,0-2,1.1-2,2.5v9.8c0,1.4,0.9,2.5,2,2.5h5.8l4.5,9.8
				c0.7-1.5,1.9-2.5,3.4-2.5h0l-3.9-8.7v-3.7h13.7V96H11.7V93.5z M37.1,91h-7.8c-1.1,0-2,1.1-2,2.5v9.8c0,1.4,0.9,2.5,2,2.5h7.8
				c1.1,0,2-1.1,2-2.5v-9.8C39.1,92.1,38.2,91,37.1,91z"/>
		</g>
		<g id="Layer_4">
			<path class="st5" d="M209.7,199.8l-34.6,0.8c-1.9,0-3.4,1.6-3.4,3.4l0.6,24.4c0,1.8,1.6,3.3,3.5,3.2l34.6-0.8
				c1.9,0,3.4-1.6,3.4-3.4l-0.6-24.4C213.2,201.2,211.6,199.7,209.7,199.8z M184.5,207c2.5-0.1,4.7,1.9,4.7,4.3
				c0.1,2.4-2,4.5-4.5,4.5c-2.5,0.1-4.7-1.9-4.7-4.3C179.9,209.1,182,207.1,184.5,207z M192.9,223.2c0,0.7-0.7,1.3-1.6,1.4
				l-12.9,0.3c-0.9,0-1.6-0.6-1.6-1.3l0-1.3c-0.1-2.2,2.1-4,4.8-4.1l0.4,0c0.9,0.3,1.9,0.5,2.9,0.5c1,0,2-0.2,2.9-0.6l0.4,0
				c2.7-0.1,4.9,1.7,4.9,3.9L192.9,223.2z M209,219.2c0,0.3-0.2,0.6-0.6,0.6l-10.4,0.2c-0.3,0-0.6-0.2-0.6-0.5l0-1.1
				c0-0.3,0.2-0.6,0.6-0.6l10.4-0.2c0.3,0,0.6,0.2,0.6,0.5L209,219.2z M208.9,214.8c0,0.3-0.2,0.6-0.6,0.6l-10.4,0.2
				c-0.3,0-0.6-0.2-0.6-0.5l0-1.1c0-0.3,0.2-0.6,0.6-0.6l10.4-0.2c0.3,0,0.6,0.2,0.6,0.5L208.9,214.8z M208.8,210.3
				c0,0.3-0.2,0.6-0.6,0.6l-10.4,0.2c-0.3,0-0.6-0.2-0.6-0.5l0-1.1c0-0.3,0.2-0.6,0.6-0.6l10.4-0.2c0.3,0,0.6,0.2,0.6,0.5
				L208.8,210.3z"/>
		</g>
		<g id="Layer_3">
			<path class="st6" d="M68.5,226.8c0,0.2-0.2,0.3-0.4,0.3c-0.3,0-0.5-0.1-0.5-0.3c0-0.2,0.2-0.3,0.4-0.3
				C68.2,226.4,68.5,226.6,68.5,226.8z M65.8,226.4c-0.1,0.2,0.1,0.4,0.4,0.4c0.2,0.1,0.5,0,0.5-0.2c0-0.2-0.1-0.4-0.4-0.4
				C66.2,226.1,65.9,226.2,65.8,226.4z M69.6,226.2c-0.2,0.1-0.4,0.2-0.4,0.4c0,0.2,0.2,0.3,0.5,0.2c0.2-0.1,0.4-0.2,0.4-0.4
				C70,226.3,69.8,226.2,69.6,226.2z M75.1,193.1c-11.6,0-20.5,9.1-20.5,21.1c0,9.6,5.9,17.8,14.2,20.7c1.1,0.2,1.5-0.5,1.5-1
				c0-0.5,0-3.5,0-5.3c0,0-5.9,1.3-7.1-2.6c0,0-1-2.5-2.3-3.2c0,0-1.9-1.4,0.1-1.3c0,0,2.1,0.2,3.2,2.2c1.8,3.3,4.9,2.4,6.1,1.8
				c0.2-1.4,0.7-2.3,1.3-2.9c-4.7-0.5-9.4-1.2-9.4-9.5c0-2.4,0.6-3.6,2-5.1c-0.2-0.6-0.9-2.9,0.2-5.9c1.8-0.6,5.8,2.3,5.8,2.3
				c1.7-0.5,3.5-0.7,5.3-0.7s3.6,0.3,5.3,0.7c0,0,4-2.9,5.8-2.3c1.1,3,0.4,5.3,0.2,5.9c1.3,1.5,2.2,2.7,2.2,5.1c0,8.3-4.9,9-9.6,9.5
				c0.8,0.7,1.4,2,1.4,4c0,2.9,0,6.5,0,7.2c0,0.6,0.4,1.2,1.5,1c8.4-2.9,14.1-11.1,14.1-20.6C96.1,202.2,86.7,193.1,75.1,193.1z
				 M62.7,222.9c-0.1,0.1-0.1,0.3,0.1,0.4c0.1,0.1,0.3,0.2,0.4,0.1c0.1-0.1,0.1-0.3-0.1-0.5C63,222.9,62.8,222.8,62.7,222.9z
				 M61.8,222.2c-0.1,0.1,0,0.2,0.2,0.3c0.1,0.1,0.3,0.1,0.4-0.1c0.1-0.1,0-0.3-0.2-0.3C62,222.1,61.8,222.1,61.8,222.2z
				 M64.5,225.3c-0.1,0.1-0.1,0.4,0.1,0.5c0.2,0.2,0.4,0.2,0.5,0.1c0.1-0.1,0.1-0.4-0.1-0.5C64.9,225.2,64.6,225.2,64.5,225.3z
				 M63.6,224c-0.1,0.1-0.1,0.3,0,0.5c0.1,0.2,0.4,0.3,0.5,0.2c0.1-0.1,0.1-0.3,0-0.5C63.9,224,63.7,223.9,63.6,224z"/>
		</g>
	</svg>
